<svg width="51" height="31" viewBox="0 0 51 31" fill="none" xmlns="http://www.w3.org/2000/svg">
<path d="M38.25 0C40.0105 0 41.4375 1.38793 41.4375 3.1V27.9C41.4375 29.6121 40.0105 31 38.25 31C36.4895 31 35.0625 29.6121 35.0625 27.9V18.6H15.9375V27.9C15.9375 29.6121 14.5104 31 12.75 31C10.9896 31 9.5625 29.6121 9.5625 27.9V3.1C9.5625 1.38793 10.9896 0 12.75 0C14.5104 0 15.9375 1.38793 15.9375 3.1V12.4H35.0625V3.1C35.0625 1.38793 36.4895 0 38.25 0ZM3.1875 6.2C4.94789 6.2 6.375 7.58793 6.375 9.3V21.7C6.375 23.4121 4.94789 24.8 3.1875 24.8C1.42709 24.8 0 23.4121 0 21.7V9.3C0 7.58793 1.42709 6.2 3.1875 6.2ZM47.8125 6.2C49.573 6.2 51 7.58793 51 9.3V21.7C51 23.4121 49.573 24.8 47.8125 24.8C46.052 24.8 44.625 23.4121 44.625 21.7V9.3C44.625 7.58793 46.052 6.2 47.8125 6.2Z" fill="#FFD173"/>
</svg>
