<svg width="52" height="32" viewBox="0 0 52 32" fill="none" xmlns="http://www.w3.org/2000/svg">
<path d="M15.7143 4.8C15.7143 3.25365 13.96 2 11.7959 2C9.63188 2 7.87756 3.25365 7.87756 4.8V27.2C7.87756 28.7464 9.63188 30 11.7959 30C13.96 30 15.7143 28.7464 15.7143 27.2V4.8Z" stroke="#FFD173" stroke-width="3" stroke-linejoin="round"/>
<path d="M43.1429 4.8C43.1429 3.25365 41.6079 2 39.7143 2C37.8207 2 36.2858 3.25365 36.2858 4.8V27.2C36.2858 28.7464 37.8207 30 39.7143 30C41.6079 30 43.1429 28.7464 43.1429 27.2V4.8Z" stroke="#FFD173" stroke-width="3" stroke-linejoin="round"/>
<path d="M7.87755 10C7.87755 8.34314 6.56181 7 4.93878 7C3.31574 7 2 8.34314 2 10V22C2 23.6569 3.31574 25 4.93878 25C6.56181 25 7.87755 23.6569 7.87755 22V10Z" stroke="#FFD173" stroke-width="3" stroke-linejoin="round"/>
<path d="M50 10C50 8.34314 48.6843 7 47.0612 7C45.4381 7 44.1224 8.34314 44.1224 10V22C44.1224 23.6569 45.4381 25 47.0612 25C48.6843 25 50 23.6569 50 22V10Z" stroke="#FFD173" stroke-width="3" stroke-linejoin="round"/>
<path d="M36.2857 18.9998H15.7142V11.9998H36.2857V18.9998Z" stroke="#FFD173" stroke-width="3" stroke-linejoin="round"/>
</svg>
