<svg width="30" height="30" viewBox="0 0 30 30" fill="none" xmlns="http://www.w3.org/2000/svg">
<path d="M30 13.5014V27.5662C29.9992 28.2114 29.7356 28.8301 29.2669 29.2863C28.7983 29.7426 28.1628 29.9993 27.5 30H2.5C1.83719 29.9993 1.20175 29.7426 0.73307 29.2863C0.264394 28.8301 0.000758028 28.2114 0 27.5662V13.5013C0.000318101 13.1623 0.0732419 12.827 0.214117 12.517C0.354991 12.2069 0.560722 11.9289 0.818176 11.7005L13.3173 0.63652C13.7764 0.227125 14.3764 2.81599e-05 14.999 2.61869e-09C15.6216 -2.81547e-05 16.2216 0.227014 16.6808 0.636368L29.1818 11.7005L29.182 11.7007C29.4394 11.929 29.6451 12.2071 29.7859 12.5171C29.9268 12.8272 29.9997 13.1624 30 13.5014Z" fill="#FFD173"/>
</svg>
