<svg width="30" height="30" viewBox="0 0 30 30" fill="none" xmlns="http://www.w3.org/2000/svg">
<path d="M27.1739 29H2.82609C2.34194 28.9995 1.87779 28.8122 1.53545 28.4793C1.19311 28.1464 1.00054 27.695 1 27.2242V13.5416C1.00022 13.2943 1.05349 13.0497 1.1564 12.8234C1.25932 12.5972 1.40961 12.3943 1.5977 12.2277L13.7706 1.4644C14.106 1.16571 14.5442 1.00002 14.999 1C15.4538 0.99998 15.8921 1.16563 16.2275 1.46429L28.4023 12.2277L28.4025 12.2278C28.5905 12.3944 28.7407 12.5973 28.8436 12.8235C28.9465 13.0498 28.9997 13.2943 29 13.5417V27.2242C28.9995 27.695 28.8069 28.1464 28.4646 28.4793C28.1222 28.8122 27.6581 28.9995 27.1739 29ZM14.9991 2.18552C14.8475 2.18561 14.7014 2.24083 14.5895 2.34033L2.41667 13.1037C2.35398 13.1592 2.30387 13.2268 2.26956 13.3022C2.23524 13.3776 2.21748 13.4592 2.21739 13.5416V27.2242C2.21756 27.3812 2.28175 27.5316 2.39586 27.6426C2.50998 27.7536 2.6647 27.816 2.82609 27.8162H27.1739C27.3353 27.816 27.49 27.7536 27.6041 27.6426C27.7183 27.5316 27.7824 27.3812 27.7826 27.2242V13.5417C27.7825 13.4592 27.7648 13.3777 27.7305 13.3023C27.6962 13.2269 27.6461 13.1592 27.5835 13.1037L15.4087 2.34026C15.2968 2.24079 15.1507 2.1856 14.9991 2.18552Z" fill="#FFD173" stroke="#FFD173" stroke-width="2"/>
</svg>
