<svg width="34" height="34" viewBox="0 0 34 34" fill="none" xmlns="http://www.w3.org/2000/svg">
<path opacity="0.4" d="M17 33.9989C26.3888 33.9989 34 26.3881 34 16.9995C34 7.61092 26.3888 0 17 0C7.61116 0 0 7.61092 0 16.9995C0 26.3881 7.61116 33.9989 17 33.9989Z" fill="#FFD173"/>
<path d="M17.0002 7.19312C13.4812 7.19312 10.6252 10.049 10.6252 13.5679C10.6252 17.0187 13.3282 19.8237 16.9152 19.9257C16.9662 19.9257 17.0342 19.9257 17.0682 19.9257C17.1022 19.9257 17.1532 19.9257 17.1872 19.9257C17.2042 19.9257 17.2212 19.9257 17.2212 19.9257C20.6552 19.8067 23.3582 17.0187 23.3752 13.5679C23.3752 10.049 20.5192 7.19312 17.0002 7.19312Z" fill="#FFD173"/>
<path d="M29 28.8202C25.8496 32.0258 21.6372 34 17 34C12.3628 34 8.15044 32.0258 5 28.8202C5.42478 27.0414 6.57522 25.4191 8.25664 24.1681C13.0885 20.6106 20.9469 20.6106 25.7434 24.1681C27.4425 25.4191 28.5752 27.0414 29 28.8202Z" fill="#FFD173"/>
</svg>
