<svg width="34" height="33" viewBox="0 0 34 33" fill="none" xmlns="http://www.w3.org/2000/svg">
<path d="M17.1931 17.7097C17.0811 17.6942 16.9371 17.6942 16.8091 17.7097C13.9931 17.6167 11.7531 15.3847 11.7531 12.6411C11.7531 9.83563 14.0891 7.55713 17.0011 7.55713C19.8971 7.55713 22.2491 9.83563 22.2491 12.6411C22.2331 15.3847 20.0091 17.6167 17.1931 17.7097Z" stroke="#FFD173" stroke-width="2" stroke-linecap="round" stroke-linejoin="round"/>
<path d="M27.7837 27.9385C24.9357 30.465 21.1597 31.9995 16.9997 31.9995C12.8397 31.9995 9.0637 30.465 6.2157 27.9385C6.3757 26.4815 7.3357 25.0555 9.0477 23.9395C13.4317 21.1185 20.5997 21.1185 24.9517 23.9395C26.6637 25.0555 27.6237 26.4815 27.7837 27.9385Z" stroke="#FFD173" stroke-width="2" stroke-linecap="round" stroke-linejoin="round"/>
<path d="M17 32C25.8365 32 33 25.0603 33 16.5C33 7.93958 25.8365 1 17 1C8.16344 1 1 7.93958 1 16.5C1 25.0603 8.16344 32 17 32Z" stroke="#FFD173" stroke-width="2" stroke-linecap="round" stroke-linejoin="round"/>
</svg>
