<svg width="28" height="35" viewBox="0 0 28 35" fill="none" xmlns="http://www.w3.org/2000/svg">
<path d="M27 7.72044V33.519H21.2768H12.1714H4.90229C2.75044 33.519 1 31.7686 1 29.6168V5.0103C1 2.79874 2.79872 1.00001 5.01028 1.00001H27V2.30076H25.482V7.72037H27V7.72044ZM13.4722 32.2183H19.976V22.8856L16.7241 24.9447L13.4722 22.8856V32.2183ZM2.30074 29.6168C2.30074 30.8653 3.18494 31.9092 4.35985 32.1595V8.96457C3.57393 8.83563 2.86293 8.48105 2.30074 7.96491V29.6168ZM24.1812 2.30082H5.01028C3.51647 2.30082 2.30081 3.51648 2.30081 5.0103C2.30081 6.50478 3.51647 7.72044 5.01028 7.72044H24.1813V2.30082H24.1812ZM5.66065 9.02118V32.2183H12.1714V20.5216L16.7241 23.4051L21.2767 20.5216V32.2183H25.6992V9.02118H5.66065Z" fill="#FFD173" stroke="#FFD173"/>
</svg>
