<svg width="26" height="32" viewBox="0 0 26 32" fill="none" xmlns="http://www.w3.org/2000/svg">
<path d="M23.2771 1.3061V6.74809H24.8012V8.05425H24.801V32H19.7075V19.6022L15.136 22.4976L10.5645 19.6022V32H4.02689V6.74809H21.9709V1.3061H4.02682C2.52681 1.3061 1.30616 2.52674 1.30616 4.02682C1.30616 5.05152 1.88209 5.93498 2.72079 6.39912V31.9452C1.17799 31.6848 0 30.3516 0 28.7348V4.02716L6.76712e-05 4.0275C6.76712e-05 4.02716 0 4.02702 0 4.02702C0 1.80619 1.80612 0 4.02682 0H25.4542V1.30616H23.2771V1.3061Z" fill="#FFD173"/>
</svg>
