<svg width="21" height="21" viewBox="0 0 21 21" fill="none" xmlns="http://www.w3.org/2000/svg">
<path d="M9.0469 19.9292L0.521895 11.4042C0.392729 11.275 0.30102 11.1351 0.24677 10.9844C0.193381 10.8337 0.166687 10.6722 0.166687 10.5C0.166687 10.3278 0.193381 10.1663 0.24677 10.0156C0.30102 9.86494 0.392729 9.725 0.521895 9.59584L9.0469 1.07084C9.2837 0.834032 9.57949 0.710033 9.93427 0.698838C10.2899 0.688505 10.5969 0.812505 10.8552 1.07084C11.1136 1.30764 11.2483 1.60344 11.2595 1.95821C11.2699 2.31385 11.1459 2.62084 10.8875 2.87917L4.55835 9.20834H18.9927C19.3587 9.20834 19.6657 9.33191 19.9137 9.57905C20.1608 9.82705 20.2844 10.134 20.2844 10.5C20.2844 10.866 20.1608 11.1725 19.9137 11.4197C19.6657 11.6677 19.3587 11.7917 18.9927 11.7917H4.55835L10.8875 18.1208C11.1243 18.3576 11.2483 18.659 11.2595 19.025C11.2699 19.391 11.1459 19.6924 10.8875 19.9292C10.6507 20.1875 10.3493 20.3167 9.98335 20.3167C9.61738 20.3167 9.30523 20.1875 9.0469 19.9292Z" fill="#AFAFAF"/>
</svg>
